<?xml version="1.0" standalone="no"?>
<!DOCTYPE svg PUBLIC "-//W3C//DTD SVG 20010904//EN"
 "http://www.w3.org/TR/2001/REC-SVG-20010904/DTD/svg10.dtd">
<svg version="1.0" xmlns="http://www.w3.org/2000/svg"
 width="512.000000pt" height="512.000000pt" viewBox="0 0 512.000000 512.000000"
 preserveAspectRatio="xMidYMid meet">

<g transform="translate(0.000000,512.000000) scale(0.100000,-0.100000)"
fill="#000000" stroke="none">
<path d="M470 5104 c-221 -47 -408 -236 -455 -459 -22 -105 -22 -4065 0 -4169
52 -245 259 -433 512 -467 51 -6 511 -9 1333 -7 1186 3 1258 4 1310 22 170 56
298 163 369 307 67 137 71 167 71 647 l0 422 -200 0 -200 0 0 -407 c0 -254 -4
-422 -11 -446 -12 -44 -59 -101 -103 -125 -29 -16 -126 -17 -1269 -20 -858 -2
-1251 1 -1278 8 -22 6 -58 27 -79 46 -77 69 -71 -114 -68 2124 l3 2005 24 38
c13 21 42 50 64 65 l41 27 1255 3 1255 2 53 -26 c40 -19 60 -37 81 -72 l27
-47 3 -427 3 -428 200 0 200 0 -3 453 -3 452 -27 80 c-69 202 -241 358 -443
400 -102 21 -2566 21 -2665 -1z"/>
<path d="M4035 3360 l-140 -140 230 -230 230 -230 -1293 0 -1292 0 0 -200 0
-200 1292 0 1293 0 -230 -230 -230 -230 140 -140 140 -140 472 472 473 473
-467 467 c-258 258 -470 468 -473 468 -3 0 -68 -63 -145 -140z"/>
</g>
</svg>
