<svg width="2000" height="1400" xmlns="http://www.w3.org/2000/svg"><path fill="#fff" d="M0 0h2000v1400H0z"/><path d="M0 127h0c19.978-5.879 39.955-11.758 61-16 21.045-4.242 43.157-6.847 65 3 21.843 9.847 43.417 32.145 67 31 23.583-1.145 49.174-25.732 74-28 24.826-2.268 48.886 17.785 72 23 23.114 5.215 45.283-4.406 64-17 18.717-12.594 33.981-28.159 58-16 24.019 12.159 56.791 52.042 81 55 24.209 2.958 39.854-31.01 61-37 21.146-5.99 47.793 16 69 24s36.973 2.012 58 0 47.315-.05 72 1c24.685 1.05 47.766 1.185 69-13s40.621-42.69 63-39c22.379 3.69 47.75 39.578 68 47 20.25 7.422 35.381-13.622 56-27s46.725-19.09 74-18c27.275 1.09 55.719 8.985 76 18s32.4 19.151 55 20c22.6.849 55.683-7.59 79-8 23.317-.41 36.87 7.207 54 14 17.13 6.793 37.84 12.76 61 7 23.16-5.76 48.773-23.25 75-31 26.227-7.75 53.07-5.763 75 6s38.947 33.302 58 37c19.053 3.698 40.141-10.446 65-15s53.488.48 78-3 44.907-15.475 66-22c21.093-6.525 42.884-7.578 64-6 21.116 1.578 41.558 5.79 102 10" fill="none" stroke="#fff" stroke-width="6" stroke-linecap="round"/><path d="M0 254h0c21.896 2.14 43.792 4.281 63 0s35.728-14.983 60-25 56.297-19.347 83-10c26.703 9.347 48.083 37.373 69 39 20.917 1.627 41.37-23.143 62-21 20.63 2.143 41.434 31.199 61 29 19.566-2.199 37.895-35.652 60-33 22.105 2.652 47.987 41.408 71 57 23.013 15.592 43.156 8.02 66-10s48.387-46.489 74-43c25.613 3.489 51.294 38.934 74 52 22.706 13.066 42.435 3.753 60 2 17.565-1.753 32.965 4.054 54-10 21.035-14.054 47.704-47.97 72-51 24.296-3.03 46.22 24.826 70 33s49.42-3.335 73 0 45.104 21.515 67 12 44.166-46.725 67-48c22.834-1.275 46.234 33.386 67 44 20.766 10.614 38.899-2.82 61-1 22.101 1.82 48.171 18.893 72 9s45.417-46.753 68-58 46.161 3.118 65 24 32.939 48.281 52 45c19.061-3.281 43.083-37.243 70-58 26.917-20.757 56.73-28.308 82-16 25.27 12.308 46 44.474 64 50 18 5.526 33.27-15.59 53-20 19.73-4.41 43.923 7.883 68 12 24.077 4.117 48.038.059 112-4" fill="none" stroke="#fefefe" stroke-width="6" stroke-linecap="round"/><path d="M0 381h0c23.398 17.7 46.795 35.402 69 37 22.205 1.598 43.217-12.907 65-26s44.337-24.775 66-32c21.663-7.225 42.436-9.992 67-6 24.564 3.992 52.918 14.742 76 23s40.892 14.024 59 11c18.108-3.024 36.512-14.836 57-10s43.058 26.32 66 36 46.255 7.553 69-10c22.745-17.553 44.923-50.532 68-57 23.077-6.468 47.052 13.573 71 13 23.948-.573 47.87-21.762 71-11 23.13 10.762 45.469 53.475 67 62 21.531 8.525 42.254-17.14 61-33 18.746-15.86 35.514-21.917 58-16 22.486 5.917 50.689 23.808 76 36s47.731 18.684 69 13c21.269-5.684 41.387-23.543 61-34s38.72-13.511 62-3 50.733 34.589 76 37c25.267 2.411 48.347-16.844 70-34s41.879-32.211 65-19c23.121 13.211 49.137 54.69 71 58 21.863 3.31 39.572-31.546 62-53 22.428-21.454 49.576-29.504 70-17 20.424 12.504 34.125 45.563 55 56 20.875 10.437 48.925-1.749 72-7 23.075-5.251 41.174-3.568 62-2s44.379 3.02 68 1c23.621-2.02 47.31-7.51 111-13M0 509h0c23.042-.288 46.083-.575 69-8s45.708-21.987 70-24c24.292-2.013 50.085 8.521 69 11 18.915 2.479 30.954-3.099 52-2 21.046 1.099 51.1 8.874 76 12 24.9 3.126 44.643 1.603 67-2 22.357-3.603 47.328-9.285 68-1 20.672 8.285 37.043 30.536 60 28 22.957-2.536 52.498-29.861 74-40 21.502-10.139 34.965-3.092 54 8 19.035 11.092 43.64 26.23 70 27 26.36.77 54.471-12.828 78-16 23.529-3.172 42.474 4.082 61 6 18.526 1.918 36.634-1.499 59 4 22.366 5.499 48.99 19.914 73 18 24.01-1.914 45.403-20.157 65-33s37.399-20.284 62-10c24.601 10.284 56.001 38.295 80 37 23.999-1.295 40.595-31.897 60-30 19.405 1.897 41.617 36.293 63 45 21.383 8.707 41.938-8.274 63-20 21.062-11.726 42.633-18.196 68-18 25.367.196 54.532 7.06 76 10 21.468 2.94 35.238 1.957 56-5s48.514-19.889 71-11c22.486 8.889 39.705 39.597 61 33 21.295-6.597 46.667-50.5 71-46s47.628 57.404 70 59c22.372 1.596 43.82-48.115 66-62 22.18-13.885 45.09 8.058 108 30" fill="none" stroke="#fff" stroke-width="6" stroke-linecap="round"/><path d="M0 636h0c21.52 8.228 43.039 16.457 67 14 23.961-2.457 50.363-15.599 73-15 22.637.599 41.507 14.939 61 7 19.493-7.939 39.608-38.157 59-34 19.392 4.157 38.062 42.688 64 43 25.938.312 59.146-37.597 83-47 23.854-9.403 38.355 9.699 57 24 18.645 14.301 41.434 23.802 66 31 24.566 7.198 50.909 12.092 75 3s45.932-32.171 66-29c20.068 3.171 38.365 32.592 59 24 20.635-8.592 43.61-55.196 68-59 24.39-3.804 50.197 35.193 70 50 19.803 14.807 33.6 5.423 57 0s56.399-6.885 80 0 37.804 22.119 58 9c20.196-13.119 46.387-54.589 70-54 23.613.589 44.65 43.237 67 61 22.35 17.763 46.015 10.64 68 10 21.985-.64 42.29 5.205 62-3s38.827-30.46 62-44c23.173-13.54 50.403-18.364 76-9s49.56 32.917 71 45c21.44 12.083 40.355 12.696 60 2 19.645-10.696 40.021-32.703 63-28 22.979 4.703 48.56 36.114 72 34 23.44-2.114 44.736-37.752 68-38 23.264-.248 48.494 34.895 69 39 20.506 4.105 36.287-22.827 57-34 20.713-11.173 46.356-6.586 112-2" fill="none" stroke="#fefefe" stroke-width="6" stroke-linecap="round"/><path d="M0 763h0c25.94 10.549 51.881 21.098 71 21 19.119-.098 31.415-10.843 54-17s55.458-7.726 83-20c27.542-12.274 49.753-35.254 67-20 17.247 15.254 29.529 68.742 50 72 20.471 3.258 49.133-43.714 75-65 25.867-21.286 48.941-16.886 72-5 23.059 11.886 46.102 31.258 68 44 21.898 12.742 42.652 18.854 61 8s34.291-38.674 58-35c23.709 3.674 55.184 38.842 82 46 26.816 7.158 48.975-13.693 68-19s34.918 4.929 57 10 50.353 4.977 74 9 42.67 12.162 64 3 44.965-35.626 66-49c21.035-13.374 39.47-13.658 59-8 19.53 5.658 40.154 17.257 61 13 20.846-4.257 41.913-24.37 68-18 26.087 6.37 57.192 39.222 81 52 23.808 12.778 40.317 5.482 62-10s48.54-39.149 71-37c22.46 2.149 40.524 30.113 59 45s37.365 16.695 62 4c24.635-12.695 55.015-39.895 80-37 24.985 2.895 44.576 35.883 66 46 21.424 10.117 44.68-2.639 65-15s37.701-24.328 60-21c22.299 3.328 49.514 21.95 73 25 23.486 3.05 43.243-9.475 103-22M0 890h0c18.675 6.031 37.35 12.063 57 16 19.65 3.937 40.276 5.78 67-2 26.724-7.78 59.545-25.186 85-18s43.542 38.962 64 38c20.458-.962 43.286-34.663 64-56 20.714-21.337 39.314-30.312 64-14s55.458 57.909 75 57c19.542-.909 27.853-44.323 47-52s49.129 20.384 72 35c22.871 14.616 38.631 15.787 61 11 22.369-4.787 51.347-15.53 77-19 25.653-3.47 47.982.335 69-5s40.725-19.81 62-9c21.275 10.81 44.117 46.907 65 49 20.883 2.093 39.806-29.819 65-44 25.194-14.181 56.658-10.632 81-4s41.56 16.345 58 13c16.44-3.345 32.1-19.75 57-20s59.038 15.652 84 31c24.962 15.348 40.746 30.14 59 24 18.254-6.14 38.977-33.211 60-38 21.023-4.789 42.345 12.706 66 14 23.655 1.294 49.642-13.612 73-15 23.358-1.388 44.087 10.743 64 6 19.913-4.743 39.012-26.36 62-35s49.867-4.301 75 3c25.133 7.301 48.52 17.565 68 29 19.48 11.435 35.052 24.04 59 20 23.948-4.04 56.27-24.726 81-30 24.73-5.274 41.865 4.863 99 15M0 1018h0c22.06-2.624 44.118-5.247 66-15 21.882-9.753 43.586-26.635 63-21 19.414 5.635 36.538 33.788 61 35 24.462 1.212 56.261-24.518 82-17 25.739 7.518 45.416 48.286 65 54 19.584 5.714 39.073-23.624 58-25 18.927-1.376 37.29 25.209 63 21s58.763-39.211 80-61c21.237-21.789 30.656-30.363 52-8s54.612 75.665 81 71c26.388-4.665 45.894-67.297 64-66 18.106 1.297 34.81 66.522 60 68 25.19 1.478 58.865-60.791 80-65 21.135-4.209 29.73 49.643 51 61s55.216-19.78 82-29c26.784-9.22 46.405 3.48 66 12s39.162 12.863 62 2 48.945-36.93 71-37c22.055-.07 40.058 25.856 61 27 20.942 1.144 44.824-22.496 68-19 23.176 3.496 45.646 34.127 66 44 20.354 9.873 38.592-1.01 62-19s51.988-43.085 75-46c23.012-2.915 40.458 16.35 60 16 19.542-.35 41.18-20.318 67-19 25.82 1.318 55.825 23.922 76 24 20.175.078 30.521-22.37 52-22 21.479.37 54.09 23.561 79 41 24.91 17.439 42.117 29.125 62 27 19.883-2.125 42.441-18.063 105-34M0 1145h0c25.339 8.252 50.677 16.504 71 24 20.323 7.496 35.63 14.236 57 8 21.37-6.236 48.806-25.447 71-41 22.194-15.553 39.147-27.448 63-19s54.606 37.24 80 47c25.394 9.76 45.43.488 66 1s41.676 10.81 62 14c20.324 3.19 39.866-.726 59-13 19.134-12.274 37.861-32.904 63-36 25.139-3.096 56.69 11.342 83 22 26.31 10.658 47.38 17.538 65 19 17.62 1.462 31.791-2.492 51 0s43.456 11.431 68 7c24.544-4.431 49.385-22.233 73-35 23.615-12.767 46.004-20.501 67-14 20.996 6.501 40.599 27.237 63 34 22.401 6.763 47.601-.447 73-3s50.996-.448 71 3c20.004 3.448 34.415 8.24 56 0s50.345-29.51 73-33c22.655-3.49 39.207 10.8 62 19s51.828 10.31 75 0c23.172-10.31 40.48-33.041 62-39 21.52-5.959 47.253 4.854 68 6s36.508-7.375 56-8c19.492-.625 42.715 6.648 70 22 27.285 15.352 58.633 38.785 79 47 20.367 8.215 29.753 1.212 51 0s54.356 3.368 80-1 43.822-17.684 102-31M0 1272h0c18.253-4.079 36.506-8.157 62 2s58.227 34.55 79 35c20.773.45 29.584-23.043 50-25 20.416-1.957 52.438 17.62 79 11 26.562-6.62 47.664-39.44 69-54 21.336-14.56 42.905-10.859 66-7s47.717 7.876 70 12 42.228 8.355 63 21 42.373 33.703 64 39c21.627 5.297 43.282-5.167 63-19 19.718-13.833 37.5-31.033 62-36 24.5-4.967 55.718 2.301 79 13 23.282 10.699 38.63 24.828 58 27 19.37 2.172 42.765-7.615 67-5s49.31 17.631 73 18c23.69.369 45.992-13.91 65-19 19.008-5.09 34.722-.994 58-2s54.122-7.115 78-13 40.79-11.546 59-19c18.21-7.454 37.715-16.702 63 1 25.285 17.702 56.347 62.354 78 56 21.653-6.354 33.895-63.713 53-71 19.105-7.287 45.073 35.5 70 57s48.815 21.715 73 14c24.185-7.715 48.67-23.358 69-31 20.33-7.642 36.509-7.283 56-14s42.297-20.512 66-28c23.703-7.488 48.305-8.67 72 7s46.484 48.191 69 56c22.516 7.809 44.758-9.096 107-26" fill="none" stroke="#fff" stroke-width="6" stroke-linecap="round"/></svg>